<?xml version="1.0" encoding="utf-8"?>
<!-- Generator: Adobe Illustrator 25.3.1, SVG Export Plug-In . SVG Version: 6.00 Build 0)  -->
<svg version="1.1" id="Layer_1" xmlns="http://www.w3.org/2000/svg" xmlns:xlink="http://www.w3.org/1999/xlink" x="0px" y="0px"
	 viewBox="0 0 1200 260.1" style="enable-background:new 0 0 1200 260.1;" xml:space="preserve">
<style type="text/css">
	.st0{fill:#FBBF24;}
	.st1{fill:#FFFFFF;}
</style>
<rect x="232.8" y="73.2" class="st0" width="54.3" height="42.7"/>
<path class="st0" d="M26.4,23.7v212.7h322V23.7H26.4z M175.5,216.5h-31.2v-72.4H90v72.4H56.8V43.6H90V116h54.3V43.6h31.2V216.5z
	 M318.3,144.1h-40.6l40.6,72.4h-31.2l-42.6-72.4h-11.7v72.4h-33.2V43.6h118.7V144.1z"/>
<g>
	<path class="st1" d="M443.5,23.7l-19.2,52l-18.5-52h-18.2v94.9h18.2V78.9l13.7,39.7h10.7l13.3-39.7v39.7h17.1V23.7H443.5z"/>
	<path class="st1" d="M473.8,23.7v94.9H492V78.9h29.8v39.7H539V23.7H473.8z M521.8,63.4H492V40h29.8V63.4z"/>
	<path class="st1" d="M600.2,23.7v53.2l-29.8-53.2h-18.2v94.9h18.2V63.8l29.8,54.8h17.1V23.7H600.2z"/>
	<path class="st1" d="M630.5,23.7v94.9h18.2V78.9h29.8v39.7h17.1V23.7H630.5z M678.5,63.4h-29.8V40h29.8V63.4z"/>
	<path class="st1" d="M774,40V23.7h-65.1v94.9H774V63.4h-36v15.5h18.9v23.5h-29.8V40H774z"/>
	<path class="st1" d="M852.3,40V23.7h-65.1v94.9h65.1v-16.2h-46.9V78.9h46.9V63.4h-46.9V40H852.3z"/>
	<path class="st1" d="M921.5,23.7l-19.2,52l-18.5-52h-18.2v94.9h18.2V78.9l13.7,39.7h10.7l13.3-39.7v39.7h17.1V23.7H921.5z"/>
	<path class="st1" d="M1016.9,40V23.7h-65.1v94.9h65.1v-16.2H970V78.9h46.9V63.4H970V40H1016.9z"/>
	<path class="st1" d="M1078.2,23.7v53.2l-29.8-53.2h-18.2v94.9h18.2V63.8l29.8,54.8h17.1V23.7H1078.2z"/>
	<path class="st1" d="M1108.5,23.7V40h24.6v78.6h18.2V40h22.3V23.7H1108.5z"/>
	<path class="st1" d="M452.7,157.8v-16.2h-65.1v55.2h48v23.5h-48v16.2h65.1v-55.1h-46.9v-23.5H452.7z"/>
	<path class="st1" d="M513.9,141.6l-15.1,30.1l-14.7-30.1h-18.2l23,47.4v47.4h18.2V189l23.9-47.4H513.9z"/>
	<path class="st1" d="M609.4,157.8v-16.2h-65.1v55.2h48v23.5h-48v16.2h65.1v-55.1h-46.9v-23.5H609.4z"/>
	<path class="st1" d="M622.6,141.6v16.2h24.6v78.6h18.2v-78.6h22.3v-16.2H622.6z"/>
	<path class="st1" d="M766,157.8v-16.2h-65.1v94.8H766v-16.2h-46.9v-23.5H766v-15.5h-46.9v-23.5H766z"/>
	<path class="st1" d="M835.2,141.6l-19.2,52l-18.5-52h-18.2v94.8h18.2v-39.7l13.7,39.7h10.7l13.3-39.7v39.7h17.1v-94.8H835.2z"/>
</g>
<g>
</g>
<g>
</g>
<g>
</g>
<g>
</g>
<g>
</g>
<g>
</g>
</svg>
